<svg width="20" height="20" viewBox="0 0 20 20" fill="none" xmlns="http://www.w3.org/2000/svg">
    <path
        d="M12.6573 18.2861H7.26522C6.94804 18.2861 6.63086 18.0482 6.63086 17.6517C6.63086 17.2552 6.86874 17.0173 7.26522 17.0173H12.6573C12.9745 17.0173 13.2917 17.2552 13.2917 17.6517C13.2917 18.0482 12.9745 18.2861 12.6573 18.2861Z"
        fill="currentColor" />
    <path
        d="M16.6211 16.066H3.29956C2.03084 16.066 1 15.1938 1 14.0837V3.696C1 2.58587 2.03084 1.71362 3.29956 1.71362H16.6211C17.8899 1.71362 18.9207 2.58587 18.9207 3.696V10.8326C18.9207 11.1497 18.6828 11.4669 18.2863 11.4669C17.8899 11.4669 17.652 11.229 17.652 10.9119V3.7753C17.652 3.29953 17.1762 2.98235 16.5419 2.98235H3.29956C2.74449 2.98235 2.18943 3.37882 2.18943 3.7753V14.163C2.18943 14.6387 2.6652 14.9559 3.29956 14.9559H16.6211C17.1762 14.9559 17.7313 14.5594 17.7313 14.163V12.7356C17.7313 12.4185 17.9692 12.1013 18.3656 12.1013C18.7621 12.1013 19 12.3392 19 12.7356V14.163C18.8414 15.1938 17.8106 16.066 16.6211 16.066Z"
        fill="currentColor" />
    <path
        d="M15.2305 12.9995C15.2038 12.9986 15.1771 12.9964 15.1506 12.9927H12.7486C12.6494 12.9941 12.5509 12.9758 12.4588 12.9388C12.3667 12.9019 12.2828 12.847 12.2122 12.7774C12.1415 12.7079 12.0854 12.6249 12.047 12.5335C12.0087 12.4421 11.989 12.344 11.989 12.2449C11.989 12.1458 12.0087 12.0477 12.047 11.9563C12.0854 11.8649 12.1415 11.782 12.2122 11.7124C12.2828 11.6428 12.3667 11.5879 12.4588 11.551C12.5509 11.514 12.6494 11.4957 12.7486 11.4971H13.4371L10.7514 8.81572L8.28514 11.2781C8.14468 11.4183 7.95421 11.497 7.75561 11.497C7.55701 11.497 7.36654 11.4183 7.22608 11.2781L4.23026 8.28703C4.15838 8.21813 4.101 8.1356 4.06147 8.04428C4.02194 7.95295 4.00105 7.85467 4.00004 7.75519C3.99903 7.65571 4.0179 7.55703 4.05557 7.46492C4.09323 7.37282 4.14893 7.28914 4.21939 7.21879C4.28985 7.14844 4.37366 7.09284 4.46591 7.05524C4.55816 7.01763 4.657 6.99878 4.75664 6.99979C4.85628 7.00081 4.95472 7.02166 5.04619 7.06113C5.13766 7.10059 5.22032 7.15789 5.28933 7.22965L7.75561 9.692L10.2219 7.22965C10.3624 7.08947 10.5528 7.01073 10.7514 7.01073C10.95 7.01073 11.1405 7.08947 11.281 7.22965L14.4962 10.4398V9.75237C14.4948 9.65328 14.5131 9.5549 14.5501 9.46295C14.5871 9.371 14.6421 9.28731 14.7118 9.21675C14.7815 9.14618 14.8645 9.09015 14.9561 9.0519C15.0476 9.01365 15.1459 8.99396 15.2451 8.99396C15.3444 8.99396 15.4427 9.01365 15.5342 9.0519C15.6258 9.09015 15.7088 9.14618 15.7785 9.21675C15.8482 9.28731 15.9032 9.371 15.9402 9.46295C15.9772 9.5549 15.9955 9.65328 15.9941 9.75237V12.1582C16.0076 12.2652 15.9978 12.3739 15.9654 12.4767C15.9329 12.5796 15.8785 12.6742 15.806 12.7541C15.7335 12.834 15.6445 12.8973 15.5451 12.9397C15.4458 12.982 15.3385 13.0024 15.2305 12.9995Z"
        fill="currentColor" />
</svg>