<svg width="20" height="20" viewBox="0 0 20 20" fill="none" xmlns="http://www.w3.org/2000/svg">
    <path
        d="M6.15408 12.6559C5.8369 12.6559 5.51971 12.418 5.51971 12.0215V8.13607C5.51971 7.81889 5.7576 7.50171 6.15408 7.50171C6.55055 7.50171 6.78844 7.73959 6.78844 8.13607V12.0215C6.70914 12.418 6.47126 12.6559 6.15408 12.6559Z"
        fill="currentColor" />
    <path
        d="M8.53291 12.656C8.21573 12.656 7.89854 12.4181 7.89854 12.0216V6.78817C7.89854 6.47099 8.13643 6.15381 8.53291 6.15381C8.92938 6.15381 9.16727 6.39169 9.16727 6.78817V12.0216C9.16727 12.4181 8.92938 12.656 8.53291 12.656Z"
        fill="currentColor" />
    <path
        d="M10.9911 12.656C10.6739 12.656 10.3567 12.4181 10.3567 12.0216V8.6119C10.3567 8.29472 10.5946 7.97754 10.9911 7.97754C11.3875 7.97754 11.6254 8.21542 11.6254 8.6119V12.1009C11.6254 12.4181 11.3082 12.656 10.9911 12.656Z"
        fill="currentColor" />
    <path
        d="M13.4494 12.656C13.1322 12.656 12.815 12.4181 12.815 12.0216V6.31234C12.8943 5.99516 13.1322 5.67798 13.4494 5.67798C13.7666 5.67798 14.0838 5.91586 14.0838 6.31234V12.1009C14.0838 12.4181 13.7666 12.656 13.4494 12.656Z"
        fill="currentColor" />
    <path
        d="M14.7973 12.6561H5.044C4.72682 12.6561 4.40964 12.4182 4.40964 12.0217C4.40964 11.6252 4.64752 11.3873 5.044 11.3873H14.718C15.0352 11.3873 15.3524 11.6252 15.3524 12.0217C15.3524 12.4182 15.1145 12.6561 14.7973 12.6561Z"
        fill="currentColor" />
    <path
        d="M12.6565 18.2863H7.26438C6.9472 18.2863 6.63002 18.0484 6.63002 17.6519C6.63002 17.2555 6.86791 17.0176 7.26438 17.0176H12.6565C12.9736 17.0176 13.2908 17.2555 13.2908 17.6519C13.2908 18.0484 12.9736 18.2863 12.6565 18.2863Z"
        fill="currentColor" />
    <path
        d="M16.6211 16.066H3.29956C2.03084 16.066 1 15.1938 1 14.0837V3.696C1 2.58587 2.03084 1.71362 3.29956 1.71362H16.6211C17.8899 1.71362 18.9207 2.58587 18.9207 3.696V10.8326C18.9207 11.1497 18.6828 11.4669 18.2863 11.4669C17.8899 11.4669 17.652 11.229 17.652 10.9119V3.7753C17.652 3.29953 17.1762 2.98235 16.5419 2.98235H3.29956C2.74449 2.98235 2.18943 3.37882 2.18943 3.7753V14.163C2.18943 14.6387 2.6652 14.9559 3.29956 14.9559H16.6211C17.1762 14.9559 17.7313 14.5594 17.7313 14.163V12.7356C17.7313 12.4185 17.9692 12.1013 18.3656 12.1013C18.7621 12.1013 19 12.3392 19 12.7356V14.163C18.8414 15.1938 17.8106 16.066 16.6211 16.066Z"
        fill="currentColor" />
</svg>