<svg width="20" height="20" viewBox="0 0 20 20" fill="none" xmlns="http://www.w3.org/2000/svg">
    <path
        d="M5.0364 2.25963C5.11999 1.97447 5.36765 1.74479 5.65944 1.6858C5.9278 1.62604 6.22233 1.71119 6.41726 1.90572C6.58601 2.06861 6.67585 2.30494 6.66765 2.53893C6.66765 6.85494 6.66687 11.1713 6.66804 15.4878C7.30476 14.8538 7.93835 14.2163 8.57507 13.5819C8.76101 13.396 9.03835 13.3085 9.29733 13.3549C9.57624 13.3987 9.82351 13.5975 9.92897 13.8592C10.0243 14.0878 10.0091 14.3592 9.88874 14.576C9.81843 14.7073 9.70554 14.8073 9.60202 14.9116C8.59226 15.921 7.58249 16.9307 6.57312 17.9405C6.44968 18.0651 6.32663 18.1999 6.15983 18.2663C5.85124 18.4018 5.46648 18.3233 5.23483 18.0788C4.13054 16.9741 3.02585 15.8698 1.92155 14.7651C1.73718 14.5827 1.64694 14.3116 1.68718 14.0553C1.72741 13.7569 1.94538 13.4921 2.22937 13.3932C2.52351 13.2831 2.87546 13.3616 3.09655 13.585C3.7321 14.2186 4.36569 14.8534 5.00046 15.4878C5.00124 11.237 5.00085 6.98619 5.00085 2.7358C5.00202 2.57682 4.98913 2.41393 5.0364 2.25963Z"
        fill="currentColor" />
    <path
        d="M9.0763 3.33938C11.8708 3.32649 14.6661 3.33782 17.4607 3.33391C17.7134 3.32454 17.9697 3.43 18.1329 3.62493C18.3345 3.85539 18.3896 4.19993 18.2712 4.48196C18.1693 4.73782 17.9314 4.93352 17.6607 4.9843C17.5302 5.00774 17.397 4.99993 17.2654 5.00071C14.5704 5.00032 11.8759 5.0011 9.18099 5.00071C8.94544 5.00422 8.71106 4.90461 8.55286 4.72961C8.35989 4.52375 8.28724 4.21594 8.36419 3.94485C8.44895 3.62297 8.74505 3.37102 9.0763 3.33938Z"
        fill="currentColor" />
    <path
        d="M8.92333 6.7034C9.06981 6.6577 9.22489 6.66707 9.37646 6.66668C12.0839 6.66746 14.7913 6.66629 17.4987 6.66746C17.7647 6.66512 18.0268 6.79989 18.1792 7.01785C18.3483 7.25145 18.3804 7.57489 18.2616 7.83739C18.1343 8.13348 17.8229 8.3366 17.5007 8.33309C14.7265 8.33426 11.9526 8.33348 9.17841 8.33348C8.94013 8.3366 8.70341 8.23387 8.5456 8.05457C8.35692 7.84793 8.28778 7.54246 8.36513 7.2741C8.43856 7.00535 8.65653 6.78309 8.92333 6.7034Z"
        fill="currentColor" />
    <path
        d="M8.96315 10.0258C9.04713 10.0047 9.13385 10.0012 9.22018 10.0004C11.0686 10.0016 12.9174 10.0004 14.7663 10.0008C14.9342 10.0019 15.1089 9.98749 15.2702 10.0461C15.5561 10.1406 15.7776 10.4031 15.8221 10.7016C15.8639 10.9488 15.7846 11.2125 15.6139 11.3961C15.4514 11.5793 15.2038 11.6758 14.9604 11.6676C13.0339 11.6672 11.1073 11.668 9.18073 11.6672C8.91979 11.6726 8.6612 11.5465 8.50416 11.3383C8.34205 11.1297 8.29205 10.8414 8.37018 10.5898C8.45221 10.3156 8.68541 10.0937 8.96315 10.0258Z"
        fill="currentColor" />
</svg>