<svg width="20" height="20" viewBox="0 0 20 20" fill="none" xmlns="http://www.w3.org/2000/svg">
    <path fill-rule="evenodd" clip-rule="evenodd"
        d="M3.28333 6.55005V16.25H16.7167V6.55005H3.28333ZM1.78333 6.42227C1.78333 5.66441 2.39769 5.05005 3.15555 5.05005H16.8444C17.6023 5.05005 18.2167 5.66441 18.2167 6.42227V16.3778C18.2167 17.1357 17.6023 17.75 16.8444 17.75H3.15555C2.39769 17.75 1.78333 17.1357 1.78333 16.3778V6.42227Z"
        fill="currentColor" />
    <path fill-rule="evenodd" clip-rule="evenodd"
        d="M6.72304 2.83416C7.09708 2.46013 7.60437 2.25 8.13333 2.25H11.8667C12.3956 2.25 12.9029 2.46013 13.2769 2.83416C13.651 3.20819 13.8611 3.71548 13.8611 4.24444V5.8C13.8611 6.21421 13.5253 6.55 13.1111 6.55C12.6969 6.55 12.3611 6.21421 12.3611 5.8V4.24444C12.3611 4.11331 12.309 3.98755 12.2163 3.89482C12.1236 3.80209 11.9978 3.75 11.8667 3.75H8.13333C8.0022 3.75 7.87643 3.80209 7.78371 3.89482C7.69098 3.98755 7.63889 4.11331 7.63889 4.24444V5.8C7.63889 6.21421 7.3031 6.55 6.88889 6.55C6.47467 6.55 6.13889 6.21421 6.13889 5.8V4.24444C6.13889 3.71548 6.34901 3.20819 6.72304 2.83416Z"
        fill="currentColor" />
    <path fill-rule="evenodd" clip-rule="evenodd"
        d="M1.78333 12.9556C1.78333 12.5414 2.11911 12.2056 2.53333 12.2056H17.4667C17.8809 12.2056 18.2167 12.5414 18.2167 12.9556C18.2167 13.3698 17.8809 13.7056 17.4667 13.7056H2.53333C2.11911 13.7056 1.78333 13.3698 1.78333 12.9556Z"
        fill="currentColor" />
</svg>