<svg width="16" height="16" viewBox="0 0 16 16" fill="none" xmlns="http://www.w3.org/2000/svg">
    <path
        d="M4.85463 2.14604C4.80819 2.09948 4.75301 2.06253 4.69227 2.03733C4.63152 2.01212 4.5664 1.99915 4.50063 1.99915C4.43486 1.99915 4.36974 2.01212 4.309 2.03733C4.24825 2.06253 4.19308 2.09948 4.14663 2.14604L1.14663 5.14604C1.05275 5.23993 1 5.36726 1 5.50004C1 5.63282 1.05275 5.76015 1.14663 5.85404C1.24052 5.94793 1.36786 6.00067 1.50063 6.00067C1.63341 6.00067 1.76074 5.94793 1.85463 5.85404L4.00063 3.70704V13.5C4.00063 13.6326 4.05331 13.7598 4.14708 13.8536C4.24085 13.9474 4.36802 14 4.50063 14C4.63324 14 4.76042 13.9474 4.85418 13.8536C4.94795 13.7598 5.00063 13.6326 5.00063 13.5V3.70704L7.14663 5.85404C7.24052 5.94793 7.36786 6.00067 7.50063 6.00067C7.63341 6.00067 7.76075 5.94793 7.85463 5.85404C7.94852 5.76015 8.00126 5.63282 8.00126 5.50004C8.00126 5.36726 7.94852 5.23993 7.85463 5.14604L4.85463 2.14604ZM11.1526 13.86C11.2459 13.9505 11.3707 14.001 11.5006 14.001C11.6305 14.001 11.7554 13.9505 11.8486 13.86L14.8486 10.96C14.9441 10.8677 14.999 10.7413 15.0013 10.6085C15.0035 10.4757 14.9529 10.3475 14.8606 10.252C14.7683 10.1566 14.6419 10.1017 14.5091 10.0994C14.3763 10.0972 14.2481 10.1477 14.1526 10.24L12.0006 12.321V2.50104C12.0006 2.36843 11.948 2.24125 11.8542 2.14749C11.7604 2.05372 11.6332 2.00104 11.5006 2.00104C11.368 2.00104 11.2408 2.05372 11.1471 2.14749C11.0533 2.24125 11.0006 2.36843 11.0006 2.50104V12.321L8.84863 10.241C8.80161 10.1947 8.74589 10.1582 8.68468 10.1336C8.62347 10.1089 8.55799 10.0966 8.49201 10.0974C8.42603 10.0981 8.36085 10.112 8.30024 10.1381C8.23962 10.1641 8.18477 10.202 8.13884 10.2493C8.09291 10.2967 8.05682 10.3527 8.03263 10.4141C8.00845 10.4755 7.99666 10.5411 7.99795 10.6071C7.99923 10.673 8.01356 10.7381 8.0401 10.7985C8.06665 10.8589 8.1049 10.9135 8.15263 10.959L11.1526 13.859V13.86Z"
        fill="#8999B9" />
</svg>