<svg width="280" height="93" viewBox="0 0 280 93" fill="none" xmlns="http://www.w3.org/2000/svg">
<path d="M11.4145 48.5005C10.2945 48.5005 9.2412 48.2872 8.25453 47.8605C7.26786 47.4338 6.4012 46.8605 5.65453 46.1405C4.93453 45.3938 4.3612 44.5272 3.93453 43.5405C3.50786 42.5538 3.29453 41.5005 3.29453 40.3805V33.0205H7.69453V39.9805C7.69453 40.8872 8.01453 41.6738 8.65453 42.3405C9.29453 42.9805 10.0812 43.3005 11.0145 43.3005H37.9345C38.3879 43.3005 38.7479 43.1538 39.0145 42.8605C39.3079 42.5405 39.4545 42.1672 39.4545 41.7405V38.9005C39.4545 38.4205 39.2812 38.0072 38.9345 37.6605C38.6145 37.3138 38.2145 37.1405 37.7345 37.1405H18.0145L14.8145 34.1405L26.5745 20.3805L29.7345 23.3005L22.0545 32.3405H37.2945C38.2012 32.3405 39.0545 32.5138 39.8545 32.8605C40.6545 33.2072 41.3479 33.6872 41.9345 34.3005C42.5212 34.8872 42.9879 35.5805 43.3345 36.3805C43.6812 37.1538 43.8545 37.9938 43.8545 38.9005V41.5405C43.9079 42.0472 44.1079 42.4738 44.4545 42.8205C44.8279 43.1405 45.2679 43.3005 45.7745 43.3005H48.2945C48.4545 43.3005 48.5879 43.3672 48.6945 43.5005C48.8012 43.6072 48.8545 43.7405 48.8545 43.9005V47.9005C48.8545 48.0605 48.8012 48.2072 48.6945 48.3405C48.5879 48.4472 48.4545 48.5005 48.2945 48.5005H46.5345C45.6012 48.5005 44.7345 48.3405 43.9345 48.0205C43.1345 47.6738 42.4279 47.2205 41.8145 46.6605C41.2012 47.2205 40.5079 47.6738 39.7345 48.0205C38.9612 48.3405 38.1479 48.5005 37.2945 48.5005H11.4145ZM55.0773 43.3005C55.6107 43.3005 56.064 43.1138 56.4373 42.7405C56.8107 42.3405 56.9973 41.8738 56.9973 41.3405V33.0605H61.3973V41.3405C61.3973 42.3272 61.2107 43.2605 60.8373 44.1405C60.464 44.9938 59.944 45.7538 59.2773 46.4205C58.6373 47.0605 57.8773 47.5672 56.9973 47.9405C56.144 48.3138 55.224 48.5005 54.2373 48.5005H48.2773C48.1173 48.5005 47.984 48.4472 47.8773 48.3405C47.7707 48.2072 47.7173 48.0738 47.7173 47.9405V43.9005C47.7173 43.7405 47.7707 43.6072 47.8773 43.5005C47.984 43.3672 48.1173 43.3005 48.2773 43.3005H55.0773ZM56.7973 29.4205H61.3973V24.8205H56.7973V29.4205ZM74.5545 47.9405C74.5545 48.3138 74.3679 48.5005 73.9945 48.5005H72.8345C71.8745 48.5005 70.9679 48.3272 70.1145 47.9805C69.2612 47.6072 68.5145 47.1005 67.8745 46.4605C67.2345 45.8205 66.7279 45.0738 66.3545 44.2205C65.9812 43.3672 65.7945 42.4605 65.7945 41.5005V21.1005H70.1945V41.3805C70.1945 41.9138 70.3812 42.3672 70.7545 42.7405C71.1279 43.1138 71.5812 43.3005 72.1145 43.3005H73.9945C74.1545 43.3005 74.2879 43.3672 74.3945 43.5005C74.5012 43.6072 74.5545 43.7405 74.5545 43.9005V47.9405ZM75.0205 53.3005H79.6205V57.9005H75.0205V53.3005ZM80.7805 43.3005C81.3138 43.3005 81.7671 43.1138 82.1405 42.7405C82.5138 42.3405 82.7005 41.8738 82.7005 41.3405V33.0605H87.1005V41.3405C87.1005 42.3272 86.9138 43.2605 86.5405 44.1405C86.1671 44.9938 85.6471 45.7538 84.9805 46.4205C84.3405 47.0605 83.5805 47.5672 82.7005 47.9405C81.8471 48.3138 80.9271 48.5005 79.9405 48.5005H73.9805C73.8205 48.5005 73.6871 48.4472 73.5805 48.3405C73.4738 48.2072 73.4205 48.0738 73.4205 47.9405V43.9005C73.4205 43.7405 73.4738 43.6072 73.5805 43.5005C73.6871 43.3672 73.8205 43.3005 73.9805 43.3005H80.7805ZM119.602 43.3005C120.135 43.3005 120.589 43.1138 120.962 42.7405C121.335 42.3672 121.522 41.9138 121.522 41.3805V33.0205H125.922V41.3405C125.922 42.3272 125.735 43.2605 125.362 44.1405C124.989 44.9938 124.469 45.7538 123.802 46.4205C123.162 47.0605 122.402 47.5672 121.522 47.9405C120.669 48.3138 119.749 48.5005 118.762 48.5005H103.602C102.482 48.5005 101.429 48.2872 100.442 47.8605C99.4554 47.4338 98.5887 46.8605 97.842 46.1405C97.122 45.3938 96.5487 44.5272 96.122 43.5405C95.6954 42.5538 95.482 41.5005 95.482 40.3805V33.0205H99.882V39.9805C99.882 40.9138 100.202 41.7005 100.842 42.3405C101.482 42.9805 102.269 43.3005 103.202 43.3005H119.602ZM105.042 33.0205H109.642V28.4205H105.042V33.0205ZM111.722 33.0205H116.322V28.4205H111.722V33.0205ZM123.272 58.7005L121.912 54.5805L127.672 52.7005C128.685 52.3538 129.485 51.7538 130.072 50.9005C130.685 50.0472 130.992 49.1005 130.992 48.0605V34.2205H135.392V47.6205C135.392 48.6605 135.232 49.6605 134.912 50.6205C134.592 51.6072 134.138 52.5005 133.552 53.3005C132.992 54.1005 132.298 54.7938 131.472 55.3805C130.672 55.9938 129.778 56.4738 128.792 56.8205L123.272 58.7005ZM148.969 47.9405C148.969 48.3138 148.782 48.5005 148.409 48.5005H147.249C146.289 48.5005 145.382 48.3272 144.529 47.9805C143.675 47.6072 142.929 47.1005 142.289 46.4605C141.649 45.8205 141.142 45.0738 140.769 44.2205C140.395 43.3672 140.209 42.4605 140.209 41.5005V21.1005H144.609V41.3805C144.609 41.9138 144.795 42.3672 145.169 42.7405C145.542 43.1138 145.995 43.3005 146.529 43.3005H148.409C148.569 43.3005 148.702 43.3672 148.809 43.5005C148.915 43.6072 148.969 43.7405 148.969 43.9005V47.9405ZM149.435 53.3005H154.035V57.9005H149.435V53.3005ZM156.115 53.3005H160.715V57.9005H156.115V53.3005ZM152.715 59.3805H157.315V63.9805H152.715V59.3805ZM157.595 43.3005C158.128 43.3005 158.581 43.1138 158.955 42.7405C159.328 42.3405 159.515 41.8738 159.515 41.3405V33.0605H163.915V41.3405C163.915 42.3272 163.728 43.2605 163.355 44.1405C162.981 44.9938 162.461 45.7538 161.795 46.4205C161.155 47.0605 160.395 47.5672 159.515 47.9405C158.661 48.3138 157.741 48.5005 156.755 48.5005H148.395C148.235 48.5005 148.101 48.4472 147.995 48.3405C147.888 48.2072 147.835 48.0738 147.835 47.9405V43.9005C147.835 43.7405 147.888 43.6072 147.995 43.5005C148.101 43.3672 148.235 43.3005 148.395 43.3005H157.595Z" fill="#4152A0"/>
<path d="M13.0323 77.2765C13.3736 77.3512 13.6456 77.5058 13.8483 77.7405C14.0509 77.9752 14.1523 78.2632 14.1523 78.6045V79.2445C14.1523 79.6392 14.0776 80.0125 13.9283 80.3645C13.7789 80.7165 13.5709 81.0205 13.3043 81.2765C13.0483 81.5432 12.7443 81.7512 12.3923 81.9005C12.0509 82.0498 11.6829 82.1245 11.2883 82.1245H8.05625C7.61892 82.1245 7.20292 82.0392 6.80825 81.8685C6.42425 81.6978 6.08825 81.4685 5.80025 81.1805C5.51225 80.8925 5.28292 80.5512 5.11225 80.1565C4.94158 79.7725 4.85625 79.3565 4.85625 78.9085V75.2285H5.96025V78.7325C5.96025 79.0205 6.01358 79.2872 6.12025 79.5325C6.22692 79.7885 6.37625 80.0072 6.56825 80.1885C6.76025 80.3805 6.98425 80.5298 7.24025 80.6365C7.49625 80.7538 7.76825 80.8125 8.05625 80.8125H11.3363C11.5709 80.8125 11.7896 80.7645 11.9923 80.6685C12.2056 80.5832 12.3869 80.4605 12.5363 80.3005C12.6963 80.1512 12.8189 79.9698 12.9043 79.7565C13.0003 79.5432 13.0483 79.3192 13.0483 79.0845V78.4605L8.68025 77.4365V75.7405C8.68025 75.3565 8.74425 74.9992 8.87225 74.6685C9.01092 74.3272 9.19758 74.0285 9.43225 73.7725C9.66692 73.5165 9.93358 73.3085 10.2323 73.1485C10.5416 72.9885 10.8723 72.8872 11.2243 72.8445L13.0803 72.6045L13.2563 73.7565L11.1443 74.0445C10.7389 74.1085 10.4029 74.3058 10.1363 74.6365C9.88025 74.9565 9.75225 75.3192 9.75225 75.7245V76.5085L13.0323 77.2765ZM14.9151 83.4845L14.5631 82.3965L16.5151 81.7565C16.9631 81.6072 17.3258 81.3352 17.6031 80.9405C17.8911 80.5458 18.0351 80.1085 18.0351 79.6285V74.5565H19.1231V79.5325C19.1231 79.9058 19.0645 80.2632 18.9471 80.6045C18.8405 80.9565 18.6805 81.2765 18.4671 81.5645C18.2645 81.8632 18.0138 82.1192 17.7151 82.3325C17.4271 82.5565 17.1071 82.7325 16.7551 82.8605L14.9151 83.4845ZM22.6321 79.5005H21.5281V68.9565H22.6321V79.5005ZM26.5999 79.5005C26.3652 79.5005 26.1412 79.4578 25.9279 79.3725C25.7145 79.2765 25.5279 79.1485 25.3679 78.9885C25.2185 78.8285 25.0959 78.6418 24.9999 78.4285C24.9145 78.2152 24.8719 77.9912 24.8719 77.7565V76.0605H25.8159V77.5165C25.8159 77.6978 25.8692 77.8578 25.9759 77.9965C26.0825 78.1245 26.2425 78.1885 26.4559 78.1885H28.9679C29.2879 78.1885 29.5492 78.1192 29.7519 77.9805C29.9545 77.8418 30.1039 77.6765 30.1999 77.4845C30.2959 77.2818 30.3385 77.0632 30.3279 76.8285C30.3172 76.5938 30.2585 76.3805 30.1519 76.1885L28.3119 72.9085L29.2399 72.2845L31.0639 75.5485C31.3305 76.0072 31.4585 76.4765 31.4479 76.9565C31.4479 77.4258 31.3412 77.8472 31.1279 78.2205C30.9252 78.5938 30.6265 78.9032 30.2319 79.1485C29.8479 79.3832 29.4052 79.5005 28.9039 79.5005H26.5999ZM38.6276 79.5005C38.201 79.5005 37.8063 79.4258 37.4436 79.2765C37.0916 79.1272 36.7876 78.9245 36.5316 78.6685C36.2756 78.4018 36.073 78.0925 35.9236 77.7405C35.785 77.3885 35.7156 77.0098 35.7156 76.6045V73.9325H36.8196V76.5725C36.8196 77.0418 36.969 77.4312 37.2676 77.7405C37.577 78.0392 37.977 78.1885 38.4676 78.1885H49.0596C49.337 78.1885 49.5716 78.0925 49.7636 77.9005C49.9663 77.6978 50.0676 77.4578 50.0676 77.1805V76.1085C50.0676 75.8098 49.961 75.5538 49.7476 75.3405C49.545 75.1272 49.289 75.0205 48.9796 75.0205H41.6036L40.8036 74.2685L44.9956 69.3565L45.7956 70.0925L42.6276 73.8205H48.9316C49.241 73.8205 49.529 73.8792 49.7956 73.9965C50.073 74.1138 50.313 74.2738 50.5156 74.4765C50.7183 74.6792 50.8783 74.9192 50.9956 75.1965C51.113 75.4632 51.1716 75.7512 51.1716 76.0605V77.0525C51.1716 77.3725 51.2836 77.6445 51.5076 77.8685C51.7423 78.0818 52.0196 78.1885 52.3396 78.1885H52.9476C53.0116 78.1885 53.065 78.2152 53.1076 78.2685C53.1503 78.3112 53.1716 78.3645 53.1716 78.4285V79.2765C53.1716 79.4258 53.097 79.5005 52.9476 79.5005H52.5316C52.1476 79.5005 51.7956 79.4152 51.4756 79.2445C51.1556 79.0738 50.889 78.8232 50.6756 78.4925C50.249 79.1645 49.6676 79.5005 48.9316 79.5005H38.6276ZM54.8891 78.1885C55.2091 78.1885 55.4811 78.0765 55.7051 77.8525C55.9291 77.6285 56.0411 77.3618 56.0411 77.0525V74.1085H57.1451V77.0525C57.1451 77.3938 57.0811 77.7138 56.9531 78.0125C56.8251 78.3112 56.6491 78.5725 56.4251 78.7965C56.2011 79.0098 55.9398 79.1805 55.6411 79.3085C55.3531 79.4365 55.0385 79.5005 54.6971 79.5005H52.9531C52.8038 79.5005 52.7291 79.4258 52.7291 79.2765V78.4285C52.7291 78.3645 52.7505 78.3112 52.7931 78.2685C52.8358 78.2152 52.8891 78.1885 52.9531 78.1885H54.8891ZM55.8651 72.2045H57.2251V70.8445H55.8651V72.2045ZM62.6671 79.2765C62.6671 79.4258 62.5925 79.5005 62.4431 79.5005H61.8511C61.5205 79.5005 61.2058 79.4365 60.9071 79.3085C60.6085 79.1805 60.3471 79.0045 60.1231 78.7805C59.8991 78.5565 59.7231 78.2952 59.5951 77.9965C59.4671 77.6978 59.4031 77.3832 59.4031 77.0525V68.9565H60.5071V77.0365C60.5071 77.3565 60.6191 77.6285 60.8431 77.8525C61.0778 78.0765 61.3498 78.1885 61.6591 78.1885H62.4431C62.5071 78.1885 62.5605 78.2152 62.6031 78.2685C62.6458 78.3112 62.6671 78.3645 62.6671 78.4285V79.2765ZM64.0535 78.1885C64.3735 78.1885 64.6455 78.0765 64.8695 77.8525C65.0935 77.6178 65.2055 77.3458 65.2055 77.0365V74.1085H66.3095V77.0525C66.3095 77.3938 66.2455 77.7138 66.1175 78.0125C65.9895 78.3112 65.8135 78.5725 65.5895 78.7965C65.3655 79.0098 65.1042 79.1805 64.8055 79.3085C64.5175 79.4365 64.2028 79.5005 63.8615 79.5005H62.4375C62.2882 79.5005 62.2135 79.4258 62.2135 79.2765V78.4285C62.2135 78.3645 62.2348 78.3112 62.2775 78.2685C62.3202 78.2152 62.3735 78.1885 62.4375 78.1885H64.0535ZM62.7415 82.7805H64.1015V81.4205H62.7415V82.7805ZM69.0714 83.4845L68.7194 82.3965L70.6714 81.7565C71.1194 81.6072 71.482 81.3352 71.7594 80.9405C72.0474 80.5458 72.1914 80.1085 72.1914 79.6285V74.5565H73.2794V79.5325C73.2794 79.9058 73.2207 80.2632 73.1034 80.6045C72.9967 80.9565 72.8367 81.2765 72.6234 81.5645C72.4207 81.8632 72.17 82.1192 71.8714 82.3325C71.5834 82.5565 71.2634 82.7325 70.9114 82.8605L69.0714 83.4845ZM77.4124 79.5005C77.1777 79.5005 76.9537 79.4578 76.7404 79.3725C76.527 79.2765 76.3404 79.1485 76.1804 78.9885C76.031 78.8285 75.9084 78.6418 75.8124 78.4285C75.727 78.2152 75.6844 77.9912 75.6844 77.7565V76.0605H76.6284V77.5165C76.6284 77.6978 76.6817 77.8578 76.7884 77.9965C76.895 78.1245 77.055 78.1885 77.2684 78.1885H79.7804C80.1004 78.1885 80.3617 78.1192 80.5644 77.9805C80.767 77.8418 80.9164 77.6765 81.0124 77.4845C81.1084 77.2818 81.151 77.0632 81.1404 76.8285C81.1297 76.5938 81.071 76.3805 80.9644 76.1885L79.1244 72.9085L80.0524 72.2845L81.8764 75.5485C82.143 76.0072 82.271 76.4765 82.2604 76.9565C82.2604 77.4258 82.1537 77.8472 81.9404 78.2205C81.7377 78.5938 81.439 78.9032 81.0444 79.1485C80.6604 79.3832 80.2177 79.5005 79.7164 79.5005H77.4124ZM86.5281 79.1005V74.8285H87.6321V78.9245C87.6321 79.2125 87.6855 79.4792 87.7921 79.7245C87.8988 79.9805 88.0428 80.1992 88.2241 80.3805C88.4161 80.5725 88.6401 80.7218 88.8961 80.8285C89.1521 80.9352 89.4241 80.9885 89.7121 80.9885H92.4801C92.7255 80.9885 92.9548 80.9405 93.1681 80.8445C93.3815 80.7592 93.5681 80.6365 93.7281 80.4765C93.8881 80.3272 94.0108 80.1458 94.0961 79.9325C94.1921 79.7298 94.2401 79.5058 94.2401 79.2605V74.5565H95.3441V77.0205C95.3441 77.4365 95.4721 77.7352 95.7281 77.9165C95.9841 78.0978 96.2775 78.1885 96.6081 78.1885H97.4561C97.6055 78.1885 97.6801 78.2632 97.6801 78.4125V79.2765C97.6801 79.3298 97.6588 79.3832 97.6161 79.4365C97.5735 79.4792 97.5201 79.5005 97.4561 79.5005H96.6721C96.3841 79.5005 96.1175 79.4418 95.8721 79.3245C95.6268 79.1965 95.4455 79.0418 95.3281 78.8605V79.5325C95.3281 79.9165 95.2535 80.2738 95.1041 80.6045C94.9548 80.9458 94.7468 81.2392 94.4801 81.4845C94.2241 81.7405 93.9201 81.9378 93.5681 82.0765C93.2268 82.2258 92.8641 82.3005 92.4801 82.3005H89.7281C89.2801 82.3005 88.8588 82.2152 88.4641 82.0445C88.0801 81.8845 87.7441 81.6605 87.4561 81.3725C87.1681 81.0845 86.9388 80.7432 86.7681 80.3485C86.6081 79.9645 86.5281 79.5485 86.5281 79.1005ZM90.2561 73.1805H91.6161V74.5405H90.2561V73.1805ZM99.3891 78.1885C99.7091 78.1885 99.9811 78.0765 100.205 77.8525C100.429 77.6285 100.541 77.3618 100.541 77.0525V74.1085H101.645V77.0525C101.645 77.3938 101.581 77.7138 101.453 78.0125C101.325 78.3112 101.149 78.5725 100.925 78.7965C100.701 79.0098 100.44 79.1805 100.141 79.3085C99.8531 79.4365 99.5385 79.5005 99.1971 79.5005H97.4531C97.3038 79.5005 97.2291 79.4258 97.2291 79.2765V78.4285C97.2291 78.3645 97.2505 78.3112 97.2931 78.2685C97.3358 78.2152 97.3891 78.1885 97.4531 78.1885H99.3891ZM97.5171 82.7805H98.8771V81.4205H97.5171V82.7805ZM99.7091 82.7805H101.069V81.4205H99.7091V82.7805ZM105.996 79.5005C105.665 79.5005 105.361 79.4312 105.084 79.2925C104.806 79.1538 104.572 78.9672 104.38 78.7325C104.188 78.4978 104.049 78.2312 103.964 77.9325C103.878 77.6232 103.868 77.3085 103.932 76.9885L104.204 75.5325C104.246 75.2872 104.332 75.0632 104.46 74.8605C104.588 74.6472 104.742 74.4658 104.924 74.3165C105.105 74.1672 105.308 74.0498 105.532 73.9645C105.766 73.8792 106.012 73.8365 106.268 73.8365H107.164C107.473 73.8365 107.761 73.8952 108.028 74.0125C108.305 74.1298 108.545 74.2898 108.748 74.4925C108.95 74.6845 109.11 74.9192 109.228 75.1965C109.345 75.4632 109.404 75.7512 109.404 76.0605V78.1885H110.668C110.732 78.1885 110.785 78.2152 110.828 78.2685C110.87 78.3112 110.892 78.3592 110.892 78.4125V79.2765C110.892 79.4258 110.817 79.5005 110.668 79.5005H109.388V79.6925C109.366 80.4178 109.137 81.0685 108.7 81.6445C108.273 82.2312 107.708 82.6472 107.004 82.8925L105.18 83.5165L104.828 82.4125L106.748 81.7725C107.206 81.6125 107.574 81.3405 107.852 80.9565C108.14 80.5832 108.284 80.1512 108.284 79.6605V79.3725C108.198 79.4258 108.097 79.4632 107.98 79.4845C107.873 79.4952 107.761 79.5005 107.644 79.5005H105.996ZM105.884 78.1885H108.3V76.0605C108.3 75.7832 108.198 75.5485 107.996 75.3565C107.804 75.1538 107.569 75.0525 107.292 75.0525H106.236C105.99 75.0525 105.777 75.1272 105.596 75.2765C105.414 75.4258 105.297 75.6232 105.244 75.8685L105.004 77.1485C104.95 77.4258 105.014 77.6712 105.196 77.8845C105.377 78.0872 105.606 78.1885 105.884 78.1885ZM112.608 78.1885C112.928 78.1885 113.2 78.0765 113.424 77.8525C113.648 77.6285 113.76 77.3618 113.76 77.0525V74.1085H114.864V77.0525C114.864 77.3938 114.8 77.7138 114.672 78.0125C114.544 78.3112 114.368 78.5725 114.144 78.7965C113.92 79.0098 113.659 79.1805 113.36 79.3085C113.072 79.4365 112.757 79.5005 112.416 79.5005H110.672C110.523 79.5005 110.448 79.4258 110.448 79.2765V78.4285C110.448 78.3645 110.469 78.3112 110.512 78.2685C110.555 78.2152 110.608 78.1885 110.672 78.1885H112.608ZM113.584 72.2045H114.944V70.8445H113.584V72.2045ZM127.376 77.2765C127.717 77.3512 127.989 77.5058 128.192 77.7405C128.395 77.9752 128.496 78.2632 128.496 78.6045V79.2445C128.496 79.6392 128.421 80.0125 128.272 80.3645C128.123 80.7165 127.915 81.0205 127.648 81.2765C127.392 81.5432 127.088 81.7512 126.736 81.9005C126.395 82.0498 126.027 82.1245 125.632 82.1245H122.4C121.963 82.1245 121.547 82.0392 121.152 81.8685C120.768 81.6978 120.432 81.4685 120.144 81.1805C119.856 80.8925 119.627 80.5512 119.456 80.1565C119.285 79.7725 119.2 79.3565 119.2 78.9085V75.2285H120.304V78.7325C120.304 79.0205 120.357 79.2872 120.464 79.5325C120.571 79.7885 120.72 80.0072 120.912 80.1885C121.104 80.3805 121.328 80.5298 121.584 80.6365C121.84 80.7538 122.112 80.8125 122.4 80.8125H125.68C125.915 80.8125 126.133 80.7645 126.336 80.6685C126.549 80.5832 126.731 80.4605 126.88 80.3005C127.04 80.1512 127.163 79.9698 127.248 79.7565C127.344 79.5432 127.392 79.3192 127.392 79.0845V78.4605L123.024 77.4365V75.7405C123.024 75.3565 123.088 74.9992 123.216 74.6685C123.355 74.3272 123.541 74.0285 123.776 73.7725C124.011 73.5165 124.277 73.3085 124.576 73.1485C124.885 72.9885 125.216 72.8872 125.568 72.8445L127.424 72.6045L127.6 73.7565L125.488 74.0445C125.083 74.1085 124.747 74.3058 124.48 74.6365C124.224 74.9565 124.096 75.3192 124.096 75.7245V76.5085L127.376 77.2765ZM131.851 79.5005H130.747V68.9565H131.851V79.5005ZM134.091 75.7405C134.091 75.0685 134.267 74.5138 134.619 74.0765C134.981 73.6392 135.445 73.3458 136.011 73.1965L138.219 72.6365V71.3245H139.323V76.9405C139.323 77.1112 139.36 77.2712 139.435 77.4205C139.509 77.5698 139.605 77.7032 139.723 77.8205C139.84 77.9272 139.979 78.0178 140.139 78.0925C140.309 78.1565 140.48 78.1885 140.651 78.1885H141.131C141.28 78.1885 141.355 78.2632 141.355 78.4125V79.2765C141.355 79.4258 141.28 79.5005 141.131 79.5005H140.651C140.149 79.5005 139.707 79.3672 139.323 79.1005C138.939 78.8338 138.651 78.4872 138.459 78.0605C138.267 78.2205 138.027 78.3005 137.739 78.3005H135.595C135.115 78.3005 134.741 78.1672 134.475 77.9005C134.219 77.6338 134.091 77.2605 134.091 76.7805V75.7405ZM138.219 73.8045L136.251 74.3165C135.92 74.4018 135.659 74.5885 135.467 74.8765C135.285 75.1538 135.195 75.4525 135.195 75.7725V76.9885H138.219V73.8045ZM142.741 78.1885C143.061 78.1885 143.333 78.0765 143.557 77.8525C143.781 77.6178 143.893 77.3458 143.893 77.0365V74.1085H144.997V77.0525C144.997 77.3938 144.933 77.7138 144.805 78.0125C144.677 78.3112 144.501 78.5725 144.277 78.7965C144.053 79.0098 143.792 79.1805 143.493 79.3085C143.205 79.4365 142.89 79.5005 142.549 79.5005H141.125C140.976 79.5005 140.901 79.4258 140.901 79.2765V78.4285C140.901 78.3645 140.922 78.3112 140.965 78.2685C141.008 78.2152 141.061 78.1885 141.125 78.1885H142.741ZM141.429 82.7805H142.789V81.4205H141.429V82.7805ZM148.467 74.5725V77.0845C148.467 77.3938 148.579 77.6552 148.803 77.8685C149.038 78.0818 149.31 78.1885 149.619 78.1885H151.219C151.283 78.1885 151.337 78.2152 151.379 78.2685C151.422 78.3112 151.443 78.3645 151.443 78.4285V79.2765C151.443 79.4258 151.369 79.5005 151.219 79.5005H149.811C149.555 79.5005 149.305 79.4472 149.059 79.3405C148.814 79.2338 148.617 79.0738 148.467 78.8605V79.5645C148.467 79.9378 148.409 80.2952 148.291 80.6365C148.174 80.9885 148.009 81.3085 147.795 81.5965C147.593 81.8845 147.342 82.1352 147.043 82.3485C146.745 82.5725 146.419 82.7432 146.067 82.8605L144.243 83.5005L143.891 82.3965L145.827 81.7565C146.297 81.6072 146.67 81.3352 146.947 80.9405C147.225 80.5458 147.363 80.1085 147.363 79.6285V74.5725H148.467ZM151.219 79.5005C151.069 79.5005 150.995 79.4258 150.995 79.2765V78.4285C150.995 78.3752 151.016 78.3218 151.059 78.2685C151.101 78.2152 151.155 78.1885 151.219 78.1885H153.827C154.339 78.1885 154.829 78.1032 155.299 77.9325C155.779 77.7618 156.205 77.5058 156.579 77.1645L157.987 75.8525C158.115 75.7352 158.211 75.6605 158.275 75.6285L154.451 74.4925C154.248 74.4285 154.056 74.4498 153.875 74.5565C153.704 74.6525 153.587 74.7965 153.523 74.9885L153.107 76.2685L152.147 75.9965L152.515 74.7325C152.589 74.4765 152.707 74.2525 152.867 74.0605C153.037 73.8578 153.229 73.6978 153.443 73.5805C153.667 73.4632 153.901 73.3938 154.147 73.3725C154.403 73.3405 154.653 73.3618 154.899 73.4365L161.075 75.2925L160.739 76.3645L160.099 76.1725C159.832 76.1192 159.603 76.1192 159.411 76.1725C159.229 76.2258 159.059 76.3165 158.899 76.4445V77.0365C158.899 77.3565 159.011 77.6285 159.235 77.8525C159.469 78.0765 159.747 78.1885 160.067 78.1885H162.179C162.243 78.1885 162.296 78.2152 162.339 78.2685C162.381 78.3112 162.403 78.3592 162.403 78.4125V79.2765C162.403 79.4258 162.328 79.5005 162.179 79.5005H160.259C159.939 79.5005 159.645 79.4472 159.379 79.3405C159.112 79.2232 158.877 79.0685 158.675 78.8765C158.472 78.6738 158.307 78.4392 158.179 78.1725C158.061 77.8952 157.987 77.6018 157.955 77.2925L156.851 78.3165C156.424 78.7005 155.939 78.9938 155.395 79.1965C154.861 79.3992 154.307 79.5005 153.731 79.5005H151.219ZM155.619 81.4205H156.979V82.7805H155.619V81.4205ZM164.108 78.1885C164.428 78.1885 164.7 78.0765 164.924 77.8525C165.148 77.6285 165.26 77.3618 165.26 77.0525V74.1085H166.364V77.0525C166.364 77.3938 166.3 77.7138 166.172 78.0125C166.044 78.3112 165.868 78.5725 165.644 78.7965C165.42 79.0098 165.159 79.1805 164.86 79.3085C164.572 79.4365 164.257 79.5005 163.916 79.5005H162.172C162.023 79.5005 161.948 79.4258 161.948 79.2765V78.4285C161.948 78.3645 161.969 78.3112 162.012 78.2685C162.055 78.2152 162.108 78.1885 162.172 78.1885H164.108ZM162.796 72.2365H164.156V70.8765H162.796V72.2365ZM164.988 72.2365H166.348V70.8765H164.988V72.2365Z" fill="#4152A0"/>
<g clip-path="url(#clip0_4849_3428)">
<path d="M186.942 55.6217C184.961 52.7775 185.634 48.8444 188.448 46.8398C191.26 44.8352 195.146 45.5158 197.128 48.3635L197.21 48.4837C199.193 51.328 198.519 55.2611 195.705 57.2657C192.894 59.272 189.007 58.5897 187.026 55.7419L186.942 55.6217ZM233.71 59.0983L203.599 16.1596C201.62 13.3012 202.306 9.35923 205.133 7.35819C207.958 5.35715 211.853 6.05186 213.831 8.91023L258.784 73.1891C260.763 76.0475 260.076 79.9895 257.25 81.9905C254.425 83.9933 250.529 83.2986 248.552 80.4385L233.71 59.0983ZM261.733 68.3951L222.833 12.1769C220.855 9.31857 221.542 5.3766 224.366 3.37379C227.193 1.37276 231.089 2.06746 233.066 4.92584L271.967 61.144C273.944 64.0024 273.257 67.9444 270.433 69.9454C267.608 71.9464 263.712 71.2517 261.733 68.3934V68.3951ZM268.136 45.8658L245.944 13.7997C243.967 10.9396 244.653 6.99758 247.478 4.99654C250.303 2.99551 254.199 3.69021 256.178 6.54859L278.367 38.6164C280.346 41.4748 279.66 45.4168 276.833 47.4178C274.009 49.4206 270.113 48.7259 268.136 45.8658ZM232.221 89.307L193.32 33.0888C191.341 30.2287 192.027 26.2867 194.854 24.2857C197.679 22.2847 201.574 22.9794 203.552 25.8377L242.452 82.0542C244.432 84.9143 243.745 88.8563 240.918 90.8573C238.094 92.8583 234.198 92.1636 232.221 89.3053V89.307ZM196.304 69.1818C194.325 66.3234 195.011 62.3814 197.838 60.3804C200.662 58.3776 204.558 59.0723 206.536 61.9324L219.34 80.4385C221.32 83.2969 220.633 87.2388 217.807 89.2399C214.982 91.2427 211.086 90.548 209.109 87.6878L196.304 69.1818Z" fill="#4152A0"/>
<path d="M185.402 53.3912C183.421 50.5452 184.097 46.6121 186.908 44.6075C189.72 42.603 193.606 43.2853 195.588 46.1313L195.672 46.2515C197.653 49.0975 196.979 53.0289 194.165 55.0352C191.354 57.0398 187.467 56.3574 185.486 53.5097L185.402 53.3912ZM247.201 78.3476L202.057 13.9291C200.078 11.0707 200.764 7.12874 203.591 5.1277C206.416 3.12666 210.311 3.82137 212.289 6.67974L257.433 71.0965C259.412 73.9549 258.725 77.8968 255.899 79.8996C253.074 81.9007 249.179 81.206 247.201 78.3476ZM260.193 66.1629L221.293 9.94645C219.315 7.08808 220.002 3.14611 222.826 1.14507C225.653 -0.857734 229.549 -0.163028 231.526 2.69711L270.426 58.9135C272.404 61.7719 271.717 65.7139 268.893 67.7149C266.068 69.7177 262.172 69.023 260.193 66.1629ZM266.595 43.6335L244.404 11.5674C242.427 8.7073 243.113 4.76532 245.938 2.76428C248.763 0.763247 252.659 1.45795 254.638 4.31633L276.827 36.3842C278.806 39.2426 278.12 43.1845 275.293 45.1856C272.469 47.1884 268.573 46.4937 266.595 43.6335ZM230.681 87.0748L191.78 30.8584C189.801 27.9982 190.487 24.058 193.314 22.0552C196.139 20.0542 200.034 20.7489 202.012 23.6072L240.912 79.8237C242.891 82.6838 242.205 86.6258 239.378 88.6268C236.554 90.6279 232.658 89.9332 230.681 87.0748ZM194.764 66.9495C192.785 64.0911 193.471 60.1492 196.298 58.1481C199.122 56.1453 203.018 56.84 204.995 59.7002L217.802 78.2062C219.78 81.0646 219.093 85.0066 216.268 87.0076C213.442 89.0104 209.546 88.3157 207.569 85.4556L194.764 66.9495Z" fill="#4152A0"/>
<path d="M185.484 53.5127L185.4 53.3943C183.419 50.5483 184.095 46.6152 186.906 44.6106C189.718 42.606 193.604 43.2883 195.586 46.1343L195.668 46.2545C195.969 46.6859 196.208 47.1402 196.386 47.6104C194.276 45.7384 191.099 45.4944 188.7 47.202C186.314 48.9043 185.466 51.9943 186.476 54.6299C186.111 54.3064 185.776 53.9317 185.484 53.5127ZM214.081 9.27247C212.104 6.4141 208.208 5.71939 205.383 7.72043C202.557 9.72324 201.87 13.6634 203.849 16.5236L202.055 13.9304C200.076 11.0702 200.763 7.12825 203.589 5.12721C206.414 3.12618 210.309 3.82088 212.287 6.67925L214.081 9.27247ZM224.617 3.7378C221.792 5.73884 221.105 9.68081 223.083 12.5392L221.289 9.94597C219.311 7.08759 219.998 3.14562 222.823 1.14458C225.647 -0.858223 229.545 -0.163516 231.522 2.69662L233.316 5.28984C231.339 2.4297 227.443 1.73499 224.617 3.7378ZM247.729 5.35525C244.904 7.35805 244.215 11.3 246.195 14.1584L244.401 11.5652C242.423 8.70504 243.11 4.76307 245.934 2.76203C248.759 0.760992 252.655 1.4557 254.634 4.31407L256.428 6.90729C254.451 4.04891 250.555 3.35421 247.729 5.35525ZM195.106 24.6479C192.279 26.6507 191.591 30.5927 193.572 33.4511L191.778 30.8579C189.799 27.9977 190.485 24.0575 193.312 22.0547C196.137 20.0537 200.032 20.7484 202.01 23.6068L203.804 26.2C201.826 23.3416 197.931 22.6469 195.106 24.6479ZM198.088 60.7409C195.261 62.7419 194.575 66.6839 196.554 69.5422L194.76 66.949C192.781 64.0907 193.467 60.1487 196.294 58.1476C199.119 56.1448 203.014 56.8395 204.992 59.6997L206.786 62.2929C204.808 59.4345 200.913 58.7398 198.088 60.7409Z" fill="#808BBF"/>
</g>
<defs>
<clipPath id="clip0_4849_3428">
<rect width="96" height="92" fill="white" transform="translate(183.5 0.500488)"/>
</clipPath>
</defs>
</svg>
