<svg width="24" height="24" viewBox="0 0 24 24" fill="none" xmlns="http://www.w3.org/2000/svg">
    <path fill-rule="evenodd" clip-rule="evenodd"
        d="M22.2954 6.31059C22.6762 6.47376 22.8525 6.91467 22.6894 7.29539L22 6.99995C22.6894 7.29539 22.6894 7.29521 22.6894 7.29539L22.6886 7.29707L22.6876 7.29955L22.6844 7.30691L22.6737 7.33099C22.6647 7.35112 22.6519 7.37934 22.6353 7.41502C22.602 7.48637 22.5533 7.58769 22.4889 7.7141C22.36 7.96675 22.1676 8.32063 21.9085 8.73641C21.4829 9.41945 20.8725 10.2776 20.062 11.1301L21.0303 12.0985C21.3232 12.3913 21.3232 12.8662 21.0303 13.1591C20.7374 13.452 20.2626 13.452 19.9697 13.1591L18.9691 12.1585C18.3094 12.7112 17.5529 13.23 16.6951 13.6562L17.6286 15.0909C17.8545 15.4381 17.7562 15.9027 17.409 16.1286C17.0619 16.3545 16.5973 16.2562 16.3714 15.909L15.2822 14.2351C14.5029 14.4896 13.6591 14.6626 12.75 14.7246V16.4999C12.75 16.9142 12.4142 17.2499 12 17.2499C11.5858 17.2499 11.25 16.9142 11.25 16.4999V14.7246C10.369 14.6645 9.54917 14.5002 8.7899 14.2584L7.71583 15.9091C7.48992 16.2562 7.02534 16.3546 6.67815 16.1287C6.33096 15.9027 6.23264 15.4382 6.45855 15.091L7.37097 13.6887C6.50658 13.2666 5.74389 12.7501 5.0785 12.1982L4.11752 13.1592C3.82463 13.4521 3.34975 13.4521 3.05686 13.1592C2.76397 12.8663 2.76397 12.3914 3.05686 12.0985L3.98062 11.1748C3.15606 10.3151 2.53533 9.4465 2.10285 8.75462C1.83992 8.33398 1.64467 7.97559 1.51396 7.71964C1.44856 7.59157 1.39918 7.48889 1.36545 7.41658C1.34858 7.38042 1.33561 7.35183 1.32649 7.33143L1.3157 7.30704L1.31245 7.29959L1.31137 7.29708L1.31096 7.29613C1.31088 7.29595 1.31064 7.29539 2 6.99995L1.31096 7.29613C1.14779 6.91541 1.32384 6.47376 1.70456 6.31059C2.08497 6.14756 2.52547 6.3235 2.68896 6.70357C2.6889 6.70344 2.68901 6.7037 2.68896 6.70357L2.68991 6.70576L2.69598 6.71947C2.70188 6.73267 2.71147 6.75386 2.7248 6.78243C2.75147 6.83959 2.79304 6.9262 2.84984 7.03742C2.96353 7.26004 3.13769 7.58022 3.3748 7.95955C3.8504 8.72042 4.57165 9.70704 5.55568 10.6215C6.42158 11.4263 7.48267 12.1675 8.75172 12.6558C9.70621 13.023 10.7854 13.2499 12 13.2499C13.2417 13.2499 14.3421 13.0127 15.3125 12.6308C16.5739 12.1343 17.6277 11.3882 18.4867 10.5819C19.4563 9.67191 20.1669 8.69511 20.6354 7.94315C20.869 7.56825 21.0406 7.25221 21.1526 7.03262C21.2086 6.9229 21.2495 6.83752 21.2758 6.78119C21.2889 6.75304 21.2983 6.73217 21.3041 6.71919L21.3101 6.70571L21.3106 6.70451C21.3106 6.70461 21.3107 6.70441 21.3106 6.70451M22.2954 6.31059C21.9148 6.14746 21.4739 6.32399 21.3106 6.70451L22.2954 6.31059ZM2.68896 6.70357C2.6889 6.70344 2.68901 6.7037 2.68896 6.70357V6.70357Z"
        fill="currentColor" />
</svg>