<svg width="22" height="22" viewBox="0 0 22 22" fill="none" xmlns="http://www.w3.org/2000/svg">
    <path
        d="M11 21.75C5.07 21.75 0.25 16.93 0.25 11C0.25 5.07 5.07 0.25 11 0.25C16.93 0.25 21.75 5.07 21.75 11C21.75 16.93 16.93 21.75 11 21.75ZM11 1.75C5.9 1.75 1.75 5.9 1.75 11C1.75 16.1 5.9 20.25 11 20.25C16.1 20.25 20.25 16.1 20.25 11C20.25 5.9 16.1 1.75 11 1.75Z"
        fill="white" />
    <path
        d="M11 12.75C10.59 12.75 10.25 12.41 10.25 12V7C10.25 6.59 10.59 6.25 11 6.25C11.41 6.25 11.75 6.59 11.75 7V12C11.75 12.41 11.41 12.75 11 12.75Z"
        fill="white" />
    <path
        d="M11 16C10.87 16 10.74 15.97 10.62 15.92C10.5 15.87 10.39 15.8 10.29 15.71C10.2 15.61 10.13 15.51 10.08 15.38C10.03 15.26 10 15.13 10 15C10 14.87 10.03 14.74 10.08 14.62C10.13 14.5 10.2 14.39 10.29 14.29C10.39 14.2 10.5 14.13 10.62 14.08C10.86 13.98 11.14 13.98 11.38 14.08C11.5 14.13 11.61 14.2 11.71 14.29C11.8 14.39 11.87 14.5 11.92 14.62C11.97 14.74 12 14.87 12 15C12 15.13 11.97 15.26 11.92 15.38C11.87 15.51 11.8 15.61 11.71 15.71C11.61 15.8 11.5 15.87 11.38 15.92C11.26 15.97 11.13 16 11 16Z"
        fill="white" />
</svg>