<svg width="20" height="20" viewBox="0 0 20 20" fill="none" xmlns="http://www.w3.org/2000/svg">
    <path d="M8.5 10H16" stroke="#eb482b" stroke-width="1.5" stroke-linecap="round"
        stroke-linejoin="round" />
    <path d="M13 7L16 10L13 13" stroke="#eb482b" stroke-width="1.5" stroke-linecap="round"
        stroke-linejoin="round" />
    <path
        d="M13 16C12.9972 16.397 12.8383 16.7769 12.5576 17.0576C12.2769 17.3383 11.897 17.4972 11.5 17.5H5.5C5.10302 17.4972 4.72309 17.3383 4.44238 17.0576C4.16167 16.7769 4.00275 16.397 4 16V4C4.00275 3.60302 4.16167 3.22309 4.44238 2.94238C4.72309 2.66167 5.10302 2.50275 5.5 2.5H11.5C11.897 2.50275 12.2769 2.66167 12.5576 2.94238C12.8383 3.22309 12.9972 3.60302 13 4"
        stroke="#eb482b" stroke-width="1.5" stroke-linecap="round" stroke-linejoin="round" />
</svg>